<svg version="1.1" id="Layer_1" xmlns="http://www.w3.org/2000/svg" xmlns:xlink="http://www.w3.org/1999/xlink" x="0px" y="0px"
	 width="100%" viewBox="0 0 1500 500" enable-background="new 0 0 1500 500" xml:space="preserve">
<path fill="#000000" opacity="1.000000" stroke="none" 
	d="
M1061.000000,501.000000 
	C707.377441,501.000000 354.254883,501.000000 1.066151,501.000000 
	C1.066151,334.398254 1.066151,167.796509 1.066151,1.097369 
	C501.000000,1.097369 1001.000000,1.097369 1500.972290,1.097369 
	C1500.972290,167.745270 1500.972290,334.372620 1500.972290,501.000000 
	C1354.463013,501.000000 1207.981567,501.000000 1061.000000,501.000000 
M594.972412,286.964905 
	C595.149841,287.124268 595.327332,287.283661 595.416199,288.220337 
	C595.095703,289.511230 594.723206,290.791718 594.462891,292.094635 
	C591.939453,304.725708 590.184937,317.426544 592.919067,330.231689 
	C595.435852,342.018707 603.783813,347.313049 615.159912,343.409912 
	C621.293335,341.305573 627.442993,337.877716 632.236877,333.552490 
	C639.969360,326.575958 646.587891,318.364777 654.144714,311.107697 
	C654.312988,311.237305 654.481201,311.366943 654.521179,312.218445 
	C651.043823,322.133728 647.566528,332.049011 643.840759,342.672638 
	C651.117310,342.672638 656.935181,342.714600 662.752075,342.658447 
	C666.898987,342.618439 672.111023,343.922028 674.888611,341.914886 
	C677.620178,339.940948 677.841614,334.533661 679.232483,330.657349 
	C686.859192,309.401428 691.904663,287.229034 702.472412,267.012085 
	C711.323730,250.078979 723.050964,236.366409 741.566833,229.760406 
	C751.023193,226.386612 755.288086,229.497147 753.046692,239.088837 
	C750.335571,250.690231 746.575073,262.098267 742.536926,273.326813 
	C734.282776,296.278198 725.539368,319.053711 716.708191,342.675537 
	C727.102905,342.675537 736.696045,342.769684 746.281006,342.535889 
	C747.285156,342.511414 748.748962,340.709930 749.142578,339.462555 
	C753.195251,326.620605 756.608704,313.558716 761.108704,300.880554 
	C767.329895,283.353241 773.432739,265.700958 785.956909,251.216583 
	C794.264832,241.608383 803.427856,233.388794 815.739929,229.359055 
	C823.018738,226.976700 826.705322,229.906738 825.123413,237.300095 
	C823.983276,242.628845 821.981628,247.782120 820.238037,252.971252 
	C814.737366,269.341644 808.749573,285.564301 803.808350,302.100464 
	C801.055420,311.313049 799.794983,321.030914 801.925842,330.748596 
	C803.799133,339.291565 808.772217,343.592407 817.465088,344.371704 
	C824.810913,345.030273 831.255676,342.509552 837.185242,338.552338 
	C849.117676,330.588989 858.695251,320.241333 866.935181,308.588593 
	C868.478088,306.406647 870.008484,304.215881 871.928894,301.482178 
	C871.928894,311.231476 871.181335,320.103394 872.110779,328.796021 
	C873.381592,340.680542 881.632202,346.536285 893.270142,343.855682 
	C898.919800,342.554413 904.502014,339.628632 909.314697,336.286285 
	C921.500305,327.823608 930.855469,316.522919 939.038086,304.231140 
	C940.425232,302.147491 941.916199,300.132965 943.359192,298.086517 
	C943.793762,298.298462 944.228333,298.510406 944.662903,298.722351 
	C944.266846,301.101105 943.854248,303.477264 943.477661,305.859100 
	C942.067627,314.778046 940.982239,323.699219 943.794983,332.564117 
	C946.312622,340.498718 951.391235,344.837250 959.628296,344.320953 
	C965.995605,343.921875 972.614990,342.787384 978.502625,340.431335 
	C993.019470,334.622192 1003.435791,323.565704 1012.609192,311.278748 
	C1015.017578,308.052856 1017.266785,304.708130 1020.373230,300.307098 
	C1019.877075,303.497498 1019.344604,305.294891 1019.362793,307.086731 
	C1019.441406,314.851868 1018.720032,322.791199 1020.100342,330.335876 
	C1021.903137,340.189240 1028.913452,344.586792 1038.954224,344.491791 
	C1048.132202,344.404968 1056.605225,342.029114 1063.282471,335.709991 
	C1072.933350,326.576782 1082.084351,316.915405 1091.849487,307.862000 
	C1091.984619,307.988007 1092.119629,308.113983 1092.195435,308.981842 
	C1089.787720,315.540283 1087.625610,322.201874 1084.923584,328.636719 
	C1078.307129,344.394165 1072.035278,360.341003 1064.460205,375.634857 
	C1059.689087,385.267609 1052.006592,393.038086 1041.123047,396.300110 
	C1034.349121,398.330383 1027.480347,398.545776 1021.867676,393.282562 
	C1016.974976,388.694489 1017.404602,382.721741 1019.081726,376.968506 
	C1019.809875,374.470673 1021.802368,372.341400 1023.281555,369.945923 
	C1018.801025,363.829102 1012.043457,361.080017 1005.728699,362.958160 
	C1000.310852,364.569550 995.259766,371.773804 994.856018,378.465607 
	C994.137329,390.378815 998.697266,397.637146 1009.782288,402.264160 
	C1021.553589,407.177612 1033.806274,407.972656 1046.073242,405.315491 
	C1073.912964,399.285034 1092.999023,382.193420 1103.762817,356.319763 
	C1111.669678,337.313660 1117.789917,317.572571 1125.151001,298.329071 
	C1135.682617,270.796692 1142.150757,241.336487 1162.489990,218.150650 
	C1157.081177,218.150650 1151.747803,217.769028 1146.491089,218.241730 
	C1138.949463,218.919861 1130.559814,218.458649 1125.357056,225.220612 
	C1121.277710,230.522644 1117.553101,236.455261 1115.231201,242.688858 
	C1106.242065,266.823395 1093.892090,288.945007 1076.854370,308.229767 
	C1071.877686,313.862854 1065.784912,318.853912 1059.372559,322.782288 
	C1052.371582,327.071289 1048.107422,324.146545 1047.412720,315.896515 
	C1047.287354,314.407166 1047.109131,312.838776 1047.422363,311.409210 
	C1049.799561,300.558655 1051.253174,289.361298 1054.969971,278.979126 
	C1062.389282,258.254608 1071.540649,238.264282 1087.702759,222.460602 
	C1088.605835,221.577560 1088.878052,220.049606 1089.687256,218.294144 
	C1070.971802,217.612198 1054.839600,220.744751 1044.759399,237.567337 
	C1041.004150,243.834442 1036.918945,250.076233 1034.351807,256.848022 
	C1028.612671,271.987274 1020.022339,285.460846 1010.405579,298.147858 
	C1004.775879,305.574890 997.045654,311.472107 989.921265,317.667633 
	C987.650635,319.642212 984.397034,320.758789 981.404114,321.571930 
	C975.749634,323.108154 972.325867,320.548004 971.832703,314.735779 
	C971.622498,312.259216 971.475525,309.676056 971.933167,307.261383 
	C973.975586,296.484161 975.970825,285.684814 978.500488,275.016174 
	C982.217468,259.340485 987.499817,244.470718 1001.081909,234.073425 
	C1004.464050,231.484299 1007.035156,227.803726 1009.857300,224.520187 
	C1030.612549,200.372086 1050.788208,175.814667 1065.177734,147.104523 
	C1069.343872,138.792358 1072.176880,130.210220 1071.863159,120.804504 
	C1071.570190,112.028351 1067.511230,107.154335 1058.909424,105.740143 
	C1045.147339,103.477577 1033.958984,109.064407 1024.769531,118.519440 
	C1013.258667,130.362839 1002.994690,143.282318 995.536377,158.180786 
	C983.683105,181.858597 972.762451,205.980240 965.287781,231.406860 
	C958.118591,255.794418 947.240601,278.138031 932.127869,298.508240 
	C926.583191,305.981812 919.994385,312.256622 911.635315,316.403717 
	C905.228821,319.582031 900.791138,317.085510 901.192078,310.008942 
	C901.573303,303.279144 902.601135,296.383026 904.666870,289.987091 
	C913.215637,263.517700 925.786926,238.911026 940.627991,214.966156 
	C935.106018,214.966156 929.650696,215.153915 924.213867,214.917282 
	C917.826050,214.639252 912.235779,216.599014 907.887268,221.047974 
	C904.203369,224.816925 900.564270,228.922470 898.084045,233.515549 
	C892.563293,243.739349 887.178040,254.119553 882.852966,264.884155 
	C877.754822,277.572815 870.529846,288.886292 862.127441,299.376587 
	C857.202759,305.524933 850.854004,310.661682 844.589233,315.538483 
	C842.351074,317.280701 837.882874,318.197357 835.536621,317.109528 
	C833.694153,316.255310 833.192993,311.788757 832.768616,308.830414 
	C832.448975,306.602051 832.811951,304.094543 833.526917,301.927704 
	C838.992065,285.365479 844.606262,268.852325 850.200134,252.332718 
	C852.435547,245.731155 855.623352,239.308472 856.820801,232.529358 
	C859.206238,219.025238 853.086182,212.719009 839.396667,213.242828 
	C838.564270,213.274658 837.733643,213.350235 836.902161,213.405212 
	C818.474243,214.623810 803.210083,222.921677 789.423584,234.567932 
	C787.660522,236.057312 785.718994,237.335434 782.764587,239.522385 
	C783.108582,236.938217 783.168579,235.987259 783.374390,235.068970 
	C783.624390,233.953354 784.083130,232.882156 784.303772,231.762634 
	C786.395874,221.149109 782.080261,214.990082 771.456726,213.555069 
	C769.328491,213.267578 767.136658,213.257355 764.985901,213.361481 
	C751.481201,214.015381 739.312378,218.682648 728.152649,226.072220 
	C723.012268,229.476013 718.135254,233.277451 712.586365,237.298981 
	C713.688110,232.582321 714.789185,228.589142 715.522705,224.529556 
	C716.282532,220.324127 714.502686,216.714920 710.332458,216.203354 
	C702.044128,215.186569 693.645874,215.066147 685.227905,214.571533 
	C685.227905,218.238434 685.533997,220.759766 685.181763,223.185501 
	C680.328613,256.605255 664.565063,284.684875 642.310242,309.416229 
	C639.417480,312.630859 635.221985,315.026306 631.186157,316.779938 
	C624.421326,319.719269 620.645874,317.146637 620.984497,309.867432 
	C621.245300,304.263611 621.923523,298.504150 623.568176,293.169037 
	C632.103577,265.480438 642.848694,238.791138 661.149231,214.970535 
	C656.042969,214.970535 651.269714,215.264542 646.545044,214.910355 
	C636.171326,214.132675 628.749817,219.238586 622.312866,226.482162 
	C620.853394,228.124557 619.663330,230.006393 618.115967,232.092484 
	C613.282898,219.464020 603.234314,215.070312 591.341064,213.910995 
	C577.691833,212.580490 565.009094,216.090317 554.246704,224.417130 
	C522.478027,248.996384 508.382294,282.011139 510.296570,321.709717 
	C511.166809,339.756897 524.677307,348.329254 541.478271,341.566284 
	C549.583618,338.303619 557.140625,332.762665 563.755615,326.908356 
	C576.586182,315.553162 585.424866,300.876343 594.972412,286.964905 
M499.948425,219.249756 
	C496.360931,219.149536 498.496155,217.043716 498.944092,215.922287 
	C507.692413,194.020004 516.195190,172.010803 525.453796,150.324722 
	C530.302246,138.968353 537.099670,128.590210 546.621277,120.379601 
	C551.272339,116.368935 556.557129,113.648674 562.975220,114.174736 
	C572.347900,114.942970 577.080688,122.686577 573.172241,131.198730 
	C571.587219,134.650787 569.254272,137.752899 567.366272,141.073730 
	C563.255554,148.304245 566.174927,154.231262 574.478821,154.337448 
	C578.210632,154.385162 582.754211,153.284622 585.569031,151.016617 
	C594.007446,144.217499 595.969360,134.704483 594.035706,124.384621 
	C592.300476,115.123718 585.947937,110.271530 577.301575,107.815659 
	C554.113586,101.229462 528.477844,110.243454 512.641663,129.914856 
	C500.123383,145.464813 492.210175,163.335846 485.093384,181.665100 
	C480.420715,193.699570 476.129669,205.882172 471.692322,217.931595 
	C461.238007,217.233643 451.281342,216.578461 441.326263,215.899612 
	C437.323242,215.626633 434.609131,217.211945 433.339569,221.134521 
	C427.372345,239.571167 418.900146,256.851013 409.381531,273.684814 
	C406.864227,278.136719 406.356903,283.174286 408.662292,289.472656 
	C410.727478,286.607330 412.236572,284.889282 413.328400,282.937836 
	C420.474091,270.166260 427.701721,257.435242 434.541626,244.500092 
	C437.954529,238.045822 443.034119,234.254593 450.010040,233.258606 
	C454.901825,232.560196 459.917877,232.731827 465.360443,232.493835 
	C464.899506,234.212463 464.728058,235.339722 464.304047,236.362244 
	C450.234894,270.290802 436.872345,304.539093 421.770966,338.002563 
	C413.054169,357.318359 401.819916,375.536957 391.115936,393.897980 
	C386.820648,401.265839 380.124207,406.809906 372.275604,410.593719 
	C366.814117,413.226746 360.566132,412.958344 357.676117,410.081299 
	C354.410034,406.829865 354.106201,401.671356 356.894196,395.618164 
	C357.936859,393.354309 359.163330,391.175140 360.206909,388.911682 
	C363.339294,382.117889 360.215698,377.072540 352.705322,376.531006 
	C347.963470,376.189056 344.819824,378.606903 342.259644,382.157349 
	C332.292572,395.979584 338.949158,415.380341 355.539307,419.942474 
	C370.963013,424.183838 385.235596,420.749329 398.257690,411.855835 
	C412.125916,402.384521 422.297577,389.474182 431.431061,375.625153 
	C452.953613,342.990662 467.238831,307.027740 479.955963,270.337982 
	C484.355530,257.644836 488.779755,244.960236 493.236298,232.146500 
	C494.993347,232.146500 496.495331,232.270950 497.971130,232.127060 
	C511.530975,230.804901 525.143372,229.836441 538.619202,227.914597 
	C545.497559,226.933655 551.181702,223.011093 554.481750,215.650375 
	C536.416504,219.504425 518.625488,219.142365 499.948425,219.249756 
M955.677917,175.925156 
	C958.463989,174.981247 961.265503,174.080017 964.029907,173.076355 
	C965.533630,172.530396 967.183105,172.076050 968.402527,171.117142 
	C971.567322,168.628326 972.631958,165.186493 971.627991,161.318817 
	C970.422791,156.675781 967.169495,154.080963 962.546448,153.171295 
	C950.609497,150.822418 936.262878,163.584869 935.511658,177.194717 
	C935.171082,183.365143 937.430298,186.734329 942.979614,188.967392 
	C947.106079,184.625412 951.066650,180.457993 955.677917,175.925156 
z"/>
<path fill="#FBFBFB" opacity="1.000000" stroke="none" 
	d="
M653.676941,310.675079 
	C646.587891,318.364777 639.969360,326.575958 632.236877,333.552490 
	C627.442993,337.877716 621.293335,341.305573 615.159912,343.409912 
	C603.783813,347.313049 595.435852,342.018707 592.919067,330.231689 
	C590.184937,317.426544 591.939453,304.725708 594.462891,292.094635 
	C594.723206,290.791718 595.095703,289.511230 595.635925,287.564819 
	C595.855652,286.311218 595.855652,285.713104 595.855652,284.306427 
	C595.094177,285.482239 594.773315,285.977692 594.452393,286.473145 
	C585.424866,300.876343 576.586182,315.553162 563.755615,326.908356 
	C557.140625,332.762665 549.583618,338.303619 541.478271,341.566284 
	C524.677307,348.329254 511.166809,339.756897 510.296570,321.709717 
	C508.382294,282.011139 522.478027,248.996384 554.246704,224.417130 
	C565.009094,216.090317 577.691833,212.580490 591.341064,213.910995 
	C603.234314,215.070312 613.282898,219.464020 618.115967,232.092484 
	C619.663330,230.006393 620.853394,228.124557 622.312866,226.482162 
	C628.749817,219.238586 636.171326,214.132675 646.545044,214.910355 
	C651.269714,215.264542 656.042969,214.970535 661.149231,214.970535 
	C642.848694,238.791138 632.103577,265.480438 623.568176,293.169037 
	C621.923523,298.504150 621.245300,304.263611 620.984497,309.867432 
	C620.645874,317.146637 624.421326,319.719269 631.186157,316.779938 
	C635.221985,315.026306 639.417480,312.630859 642.310242,309.416229 
	C664.565063,284.684875 680.328613,256.605255 685.181763,223.185501 
	C685.533997,220.759766 685.227905,218.238434 685.227905,214.571533 
	C693.645874,215.066147 702.044128,215.186569 710.332458,216.203354 
	C714.502686,216.714920 716.282532,220.324127 715.522705,224.529556 
	C714.789185,228.589142 713.688110,232.582321 712.586365,237.298981 
	C718.135254,233.277451 723.012268,229.476013 728.152649,226.072220 
	C739.312378,218.682648 751.481201,214.015381 764.985901,213.361481 
	C767.136658,213.257355 769.328491,213.267578 771.456726,213.555069 
	C782.080261,214.990082 786.395874,221.149109 784.303772,231.762634 
	C784.083130,232.882156 783.624390,233.953354 783.374390,235.068970 
	C783.168579,235.987259 783.108582,236.938217 782.764587,239.522385 
	C785.718994,237.335434 787.660522,236.057312 789.423584,234.567932 
	C803.210083,222.921677 818.474243,214.623810 836.902161,213.405212 
	C837.733643,213.350235 838.564270,213.274658 839.396667,213.242828 
	C853.086182,212.719009 859.206238,219.025238 856.820801,232.529358 
	C855.623352,239.308472 852.435547,245.731155 850.200134,252.332718 
	C844.606262,268.852325 838.992065,285.365479 833.526917,301.927704 
	C832.811951,304.094543 832.448975,306.602051 832.768616,308.830414 
	C833.192993,311.788757 833.694153,316.255310 835.536621,317.109528 
	C837.882874,318.197357 842.351074,317.280701 844.589233,315.538483 
	C850.854004,310.661682 857.202759,305.524933 862.127441,299.376587 
	C870.529846,288.886292 877.754822,277.572815 882.852966,264.884155 
	C887.178040,254.119553 892.563293,243.739349 898.084045,233.515549 
	C900.564270,228.922470 904.203369,224.816925 907.887268,221.047974 
	C912.235779,216.599014 917.826050,214.639252 924.213867,214.917282 
	C929.650696,215.153915 935.106018,214.966156 940.627991,214.966156 
	C925.786926,238.911026 913.215637,263.517700 904.666870,289.987091 
	C902.601135,296.383026 901.573303,303.279144 901.192078,310.008942 
	C900.791138,317.085510 905.228821,319.582031 911.635315,316.403717 
	C919.994385,312.256622 926.583191,305.981812 932.127869,298.508240 
	C947.240601,278.138031 958.118591,255.794418 965.287781,231.406860 
	C972.762451,205.980240 983.683105,181.858597 995.536377,158.180786 
	C1002.994690,143.282318 1013.258667,130.362839 1024.769531,118.519440 
	C1033.958984,109.064407 1045.147339,103.477577 1058.909424,105.740143 
	C1067.511230,107.154335 1071.570190,112.028351 1071.863159,120.804504 
	C1072.176880,130.210220 1069.343872,138.792358 1065.177734,147.104523 
	C1050.788208,175.814667 1030.612549,200.372086 1009.857300,224.520187 
	C1007.035156,227.803726 1004.464050,231.484299 1001.081909,234.073425 
	C987.499817,244.470718 982.217468,259.340485 978.500488,275.016174 
	C975.970825,285.684814 973.975586,296.484161 971.933167,307.261383 
	C971.475525,309.676056 971.622498,312.259216 971.832703,314.735779 
	C972.325867,320.548004 975.749634,323.108154 981.404114,321.571930 
	C984.397034,320.758789 987.650635,319.642212 989.921265,317.667633 
	C997.045654,311.472107 1004.775879,305.574890 1010.405579,298.147858 
	C1020.022339,285.460846 1028.612671,271.987274 1034.351807,256.848022 
	C1036.918945,250.076233 1041.004150,243.834442 1044.759399,237.567337 
	C1054.839600,220.744751 1070.971802,217.612198 1089.687256,218.294144 
	C1088.878052,220.049606 1088.605835,221.577560 1087.702759,222.460602 
	C1071.540649,238.264282 1062.389282,258.254608 1054.969971,278.979126 
	C1051.253174,289.361298 1049.799561,300.558655 1047.422363,311.409210 
	C1047.109131,312.838776 1047.287354,314.407166 1047.412720,315.896515 
	C1048.107422,324.146545 1052.371582,327.071289 1059.372559,322.782288 
	C1065.784912,318.853912 1071.877686,313.862854 1076.854370,308.229767 
	C1093.892090,288.945007 1106.242065,266.823395 1115.231201,242.688858 
	C1117.553101,236.455261 1121.277710,230.522644 1125.357056,225.220612 
	C1130.559814,218.458649 1138.949463,218.919861 1146.491089,218.241730 
	C1151.747803,217.769028 1157.081177,218.150650 1162.489990,218.150650 
	C1142.150757,241.336487 1135.682617,270.796692 1125.151001,298.329071 
	C1117.789917,317.572571 1111.669678,337.313660 1103.762817,356.319763 
	C1092.999023,382.193420 1073.912964,399.285034 1046.073242,405.315491 
	C1033.806274,407.972656 1021.553589,407.177612 1009.782288,402.264160 
	C998.697266,397.637146 994.137329,390.378815 994.856018,378.465607 
	C995.259766,371.773804 1000.310852,364.569550 1005.728699,362.958160 
	C1012.043457,361.080017 1018.801025,363.829102 1023.281555,369.945923 
	C1021.802368,372.341400 1019.809875,374.470673 1019.081726,376.968506 
	C1017.404602,382.721741 1016.974976,388.694489 1021.867676,393.282562 
	C1027.480347,398.545776 1034.349121,398.330383 1041.123047,396.300110 
	C1052.006592,393.038086 1059.689087,385.267609 1064.460205,375.634857 
	C1072.035278,360.341003 1078.307129,344.394165 1084.923584,328.636719 
	C1087.625610,322.201874 1089.787720,315.540283 1092.487793,308.423401 
	C1092.848389,307.292999 1092.916626,306.721039 1093.089355,305.272583 
	C1092.179443,306.496368 1091.814087,306.987854 1091.448608,307.479309 
	C1082.084351,316.915405 1072.933350,326.576782 1063.282471,335.709991 
	C1056.605225,342.029114 1048.132202,344.404968 1038.954224,344.491791 
	C1028.913452,344.586792 1021.903137,340.189240 1020.100342,330.335876 
	C1018.720032,322.791199 1019.441406,314.851868 1019.362793,307.086731 
	C1019.344604,305.294891 1019.877075,303.497498 1020.373230,300.307098 
	C1017.266785,304.708130 1015.017578,308.052856 1012.609192,311.278748 
	C1003.435791,323.565704 993.019470,334.622192 978.502625,340.431335 
	C972.614990,342.787384 965.995605,343.921875 959.628296,344.320953 
	C951.391235,344.837250 946.312622,340.498718 943.794983,332.564117 
	C940.982239,323.699219 942.067627,314.778046 943.477661,305.859100 
	C943.854248,303.477264 944.266846,301.101105 944.662903,298.722351 
	C944.228333,298.510406 943.793762,298.298462 943.359192,298.086517 
	C941.916199,300.132965 940.425232,302.147491 939.038086,304.231140 
	C930.855469,316.522919 921.500305,327.823608 909.314697,336.286285 
	C904.502014,339.628632 898.919800,342.554413 893.270142,343.855682 
	C881.632202,346.536285 873.381592,340.680542 872.110779,328.796021 
	C871.181335,320.103394 871.928894,311.231476 871.928894,301.482178 
	C870.008484,304.215881 868.478088,306.406647 866.935181,308.588593 
	C858.695251,320.241333 849.117676,330.588989 837.185242,338.552338 
	C831.255676,342.509552 824.810913,345.030273 817.465088,344.371704 
	C808.772217,343.592407 803.799133,339.291565 801.925842,330.748596 
	C799.794983,321.030914 801.055420,311.313049 803.808350,302.100464 
	C808.749573,285.564301 814.737366,269.341644 820.238037,252.971252 
	C821.981628,247.782120 823.983276,242.628845 825.123413,237.300095 
	C826.705322,229.906738 823.018738,226.976700 815.739929,229.359055 
	C803.427856,233.388794 794.264832,241.608383 785.956909,251.216583 
	C773.432739,265.700958 767.329895,283.353241 761.108704,300.880554 
	C756.608704,313.558716 753.195251,326.620605 749.142578,339.462555 
	C748.748962,340.709930 747.285156,342.511414 746.281006,342.535889 
	C736.696045,342.769684 727.102905,342.675537 716.708191,342.675537 
	C725.539368,319.053711 734.282776,296.278198 742.536926,273.326813 
	C746.575073,262.098267 750.335571,250.690231 753.046692,239.088837 
	C755.288086,229.497147 751.023193,226.386612 741.566833,229.760406 
	C723.050964,236.366409 711.323730,250.078979 702.472412,267.012085 
	C691.904663,287.229034 686.859192,309.401428 679.232483,330.657349 
	C677.841614,334.533661 677.620178,339.940948 674.888611,341.914886 
	C672.111023,343.922028 666.898987,342.618439 662.752075,342.658447 
	C656.935181,342.714600 651.117310,342.672638 643.840759,342.672638 
	C647.566528,332.049011 651.043823,322.133728 654.752869,311.599854 
	C654.915405,310.696869 654.846252,310.412506 654.777100,310.128143 
	C654.410400,310.310455 654.043640,310.492767 653.676941,310.675079 
M996.780579,225.910858 
	C1014.921326,204.151550 1032.889282,182.187805 1046.568848,157.287735 
	C1052.679199,146.165390 1056.852173,133.943817 1061.391113,122.025642 
	C1062.200928,119.899330 1061.304199,115.422874 1059.747803,114.516121 
	C1057.696655,113.321007 1054.026611,114.040749 1051.406006,114.952919 
	C1049.202759,115.719826 1047.171509,117.672638 1045.651733,119.570908 
	C1042.227905,123.847321 1038.781128,128.188721 1036.023560,132.901443 
	C1018.890259,162.181290 1007.102661,193.829468 995.052917,226.059006 
	C995.185120,226.430664 995.317383,226.802307 995.449585,227.173950 
	C995.683289,226.833679 995.917053,226.493408 996.780579,225.910858 
M571.665649,241.170395 
	C561.661560,252.027649 553.441833,264.177826 548.033936,277.846436 
	C544.719116,286.224731 542.985229,295.282593 541.121765,304.157166 
	C540.247620,308.320038 540.171326,313.170380 544.612976,315.814575 
	C549.032593,318.445740 553.417969,316.361481 557.348267,314.194977 
	C560.520874,312.446075 563.568665,310.277435 566.209778,307.802032 
	C570.442993,303.834320 575.002502,299.931885 578.180664,295.171661 
	C590.162170,277.225861 601.691101,258.976349 613.279724,240.770630 
	C616.804504,235.233185 615.668884,231.039124 609.718628,228.018921 
	C607.300354,226.791504 604.355347,226.101212 601.635132,226.055649 
	C589.373779,225.850296 580.344299,232.482162 571.665649,241.170395 
M944.978821,297.567078 
	C944.828552,297.145538 944.678223,296.723969 944.527954,296.302429 
	C944.483582,296.901154 944.439209,297.499847 944.978821,297.567078 
z"/>
<path fill="#FAFAFA" opacity="1.000000" stroke="none" 
	d="
M500.404877,219.238983 
	C518.625488,219.142365 536.416504,219.504425 554.481750,215.650375 
	C551.181702,223.011093 545.497559,226.933655 538.619202,227.914597 
	C525.143372,229.836441 511.530975,230.804901 497.971130,232.127060 
	C496.495331,232.270950 494.993347,232.146500 493.236298,232.146500 
	C488.779755,244.960236 484.355530,257.644836 479.955963,270.337982 
	C467.238831,307.027740 452.953613,342.990662 431.431061,375.625153 
	C422.297577,389.474182 412.125916,402.384521 398.257690,411.855835 
	C385.235596,420.749329 370.963013,424.183838 355.539307,419.942474 
	C338.949158,415.380341 332.292572,395.979584 342.259644,382.157349 
	C344.819824,378.606903 347.963470,376.189056 352.705322,376.531006 
	C360.215698,377.072540 363.339294,382.117889 360.206909,388.911682 
	C359.163330,391.175140 357.936859,393.354309 356.894196,395.618164 
	C354.106201,401.671356 354.410034,406.829865 357.676117,410.081299 
	C360.566132,412.958344 366.814117,413.226746 372.275604,410.593719 
	C380.124207,406.809906 386.820648,401.265839 391.115936,393.897980 
	C401.819916,375.536957 413.054169,357.318359 421.770966,338.002563 
	C436.872345,304.539093 450.234894,270.290802 464.304047,236.362244 
	C464.728058,235.339722 464.899506,234.212463 465.360443,232.493835 
	C459.917877,232.731827 454.901825,232.560196 450.010040,233.258606 
	C443.034119,234.254593 437.954529,238.045822 434.541626,244.500092 
	C427.701721,257.435242 420.474091,270.166260 413.328400,282.937836 
	C412.236572,284.889282 410.727478,286.607330 408.662292,289.472656 
	C406.356903,283.174286 406.864227,278.136719 409.381531,273.684814 
	C418.900146,256.851013 427.372345,239.571167 433.339569,221.134521 
	C434.609131,217.211945 437.323242,215.626633 441.326263,215.899612 
	C451.281342,216.578461 461.238007,217.233643 471.692322,217.931595 
	C476.129669,205.882172 480.420715,193.699570 485.093384,181.665100 
	C492.210175,163.335846 500.123383,145.464813 512.641663,129.914856 
	C528.477844,110.243454 554.113586,101.229462 577.301575,107.815659 
	C585.947937,110.271530 592.300476,115.123718 594.035706,124.384621 
	C595.969360,134.704483 594.007446,144.217499 585.569031,151.016617 
	C582.754211,153.284622 578.210632,154.385162 574.478821,154.337448 
	C566.174927,154.231262 563.255554,148.304245 567.366272,141.073730 
	C569.254272,137.752899 571.587219,134.650787 573.172241,131.198730 
	C577.080688,122.686577 572.347900,114.942970 562.975220,114.174736 
	C556.557129,113.648674 551.272339,116.368935 546.621277,120.379601 
	C537.099670,128.590210 530.302246,138.968353 525.453796,150.324722 
	C516.195190,172.010803 507.692413,194.020004 498.944092,215.922287 
	C498.496155,217.043716 496.360931,219.149536 500.404877,219.238983 
z"/>
<path fill="#F9F9F9" opacity="1.000000" stroke="none" 
	d="
M955.352600,176.107880 
	C951.066650,180.457993 947.106079,184.625412 942.979614,188.967392 
	C937.430298,186.734329 935.171082,183.365143 935.511658,177.194717 
	C936.262878,163.584869 950.609497,150.822418 962.546448,153.171295 
	C967.169495,154.080963 970.422791,156.675781 971.627991,161.318817 
	C972.631958,165.186493 971.567322,168.628326 968.402527,171.117142 
	C967.183105,172.076050 965.533630,172.530396 964.029907,173.076355 
	C961.265503,174.080017 958.463989,174.981247 955.352600,176.107880 
z"/>
<path fill="#040404" opacity="1.000000" stroke="none" 
	d="
M571.894714,240.897156 
	C580.344299,232.482162 589.373779,225.850296 601.635132,226.055649 
	C604.355347,226.101212 607.300354,226.791504 609.718628,228.018921 
	C615.668884,231.039124 616.804504,235.233185 613.279724,240.770630 
	C601.691101,258.976349 590.162170,277.225861 578.180664,295.171661 
	C575.002502,299.931885 570.442993,303.834320 566.209778,307.802032 
	C563.568665,310.277435 560.520874,312.446075 557.348267,314.194977 
	C553.417969,316.361481 549.032593,318.445740 544.612976,315.814575 
	C540.171326,313.170380 540.247620,308.320038 541.121765,304.157166 
	C542.985229,295.282593 544.719116,286.224731 548.033936,277.846436 
	C553.441833,264.177826 561.661560,252.027649 571.894714,240.897156 
z"/>
<path fill="#060606" opacity="1.000000" stroke="none" 
	d="
M995.397522,225.504547 
	C1007.102661,193.829468 1018.890259,162.181290 1036.023560,132.901443 
	C1038.781128,128.188721 1042.227905,123.847321 1045.651733,119.570908 
	C1047.171509,117.672638 1049.202759,115.719826 1051.406006,114.952919 
	C1054.026611,114.040749 1057.696655,113.321007 1059.747803,114.516121 
	C1061.304199,115.422874 1062.200928,119.899330 1061.391113,122.025642 
	C1056.852173,133.943817 1052.679199,146.165390 1046.568848,157.287735 
	C1032.889282,182.187805 1014.921326,204.151550 996.280945,225.865723 
	C995.781311,225.820587 995.397522,225.504547 995.397522,225.504547 
z"/>
<path fill="#000000" opacity="1.000000" stroke="none" 
	d="
M594.712402,286.719025 
	C594.773315,285.977692 595.094177,285.482239 595.855652,284.306427 
	C595.855652,285.713104 595.855652,286.311218 595.680237,287.176208 
	C595.327332,287.283661 595.149841,287.124268 594.712402,286.719025 
z"/>
<path fill="#000000" opacity="1.000000" stroke="none" 
	d="
M944.686890,297.832825 
	C944.439209,297.499847 944.483582,296.901154 944.527954,296.302429 
	C944.678223,296.723969 944.828552,297.145538 944.686890,297.832825 
z"/>
<path fill="#000000" opacity="1.000000" stroke="none" 
	d="
M1091.649048,307.670654 
	C1091.814087,306.987854 1092.179443,306.496368 1093.089355,305.272583 
	C1092.916626,306.721039 1092.848389,307.292999 1092.517456,308.052460 
	C1092.119629,308.113983 1091.984619,307.988007 1091.649048,307.670654 
z"/>
<path fill="#060606" opacity="1.000000" stroke="none" 
	d="
M995.966064,225.986862 
	C995.917053,226.493408 995.683289,226.833679 995.449585,227.173950 
	C995.317383,226.802307 995.185120,226.430664 995.225220,225.781769 
	C995.397522,225.504547 995.781311,225.820587 995.966064,225.986862 
z"/>
<path fill="#000000" opacity="1.000000" stroke="none" 
	d="
M653.910828,310.891388 
	C654.043640,310.492767 654.410400,310.310455 654.777100,310.128143 
	C654.846252,310.412506 654.915405,310.696869 654.817017,311.238892 
	C654.481201,311.366943 654.312988,311.237305 653.910828,310.891388 
z"/>
</svg>