<svg width="84" height="32" viewBox="0 0 84 32" fill="none" xmlns="http://www.w3.org/2000/svg">
<path d="M83.3724 11.4174C82.563 11.4601 81.7536 11.4744 80.9442 11.5599C80.5039 11.6027 80.1063 11.8022 79.7797 12.1301C79.3253 12.5719 79.0697 13.1278 78.8425 13.6837C78.5869 14.2824 78.3597 14.9096 78.0757 15.494C77.6781 16.2922 77.2521 17.0762 76.8261 17.8459C76.1871 19.0004 75.3919 20.0552 74.4831 20.996C74.0571 21.4379 73.5885 21.8655 72.9921 22.0935C72.5235 22.2646 72.1542 22.1933 72.0406 21.837C71.9696 21.5947 71.8844 21.3381 71.8844 21.0815C71.8844 20.3118 72.0265 19.5706 72.2395 18.8437C72.4099 18.2592 72.5803 17.6748 72.8075 17.1047C73.1057 16.3777 73.4323 15.6508 73.7873 14.9523C74.2701 14.0116 74.7955 13.0993 75.5339 12.3154C75.7043 12.1301 75.8605 11.9305 76.0025 11.731C76.0451 11.6597 76.0593 11.5599 76.0735 11.4744C75.9883 11.4601 75.9173 11.4174 75.8321 11.4174C75.1363 11.4174 74.4405 11.5171 73.7731 11.7024C73.1341 11.8735 72.6087 12.2156 72.1826 12.7002C71.6856 13.2561 71.3022 13.8976 70.9756 14.5817C70.6916 15.1661 70.4644 15.7648 70.1662 16.3492C69.8538 16.9621 69.4988 17.5465 69.1438 18.131C68.6894 18.8579 68.2634 19.5991 67.6528 20.1978C66.9428 20.8962 66.2328 21.5804 65.2388 21.8797C64.7844 22.0223 64.33 21.7229 64.33 21.2526C64.3158 20.5826 64.3726 19.927 64.5146 19.2855C64.6992 18.4731 64.8554 17.6606 65.0684 16.8481C65.1962 16.3207 65.395 15.8218 65.5654 15.3087C65.7216 14.8526 65.9204 14.4392 66.2612 14.0829C66.7866 13.5269 67.3262 12.9853 67.8232 12.4151C68.7178 11.3604 69.6124 10.3056 70.4644 9.22227C71.2312 8.23875 71.927 7.19822 72.6371 6.15768C73.1767 5.35947 73.6453 4.48998 73.9719 3.57773C74.2417 2.83653 74.5257 2.08107 74.3411 1.24009C74.2275 0.76971 73.9861 0.413363 73.5601 0.199555C73.4181 0.128285 73.2619 0.0570156 73.1199 0C72.7933 0 72.4525 0 72.1258 0C72.069 0.0285078 72.0264 0.0855234 71.9696 0.0855234C71.3732 0.142539 70.8904 0.441871 70.4076 0.783964C69.6124 1.35412 69.0018 2.09532 68.3912 2.85078C67.738 3.66325 67.1558 4.54699 66.7014 5.4735C66.105 6.67082 65.5796 7.88241 65.0542 9.10824C64.7418 9.84944 64.4578 10.5906 64.1738 11.3461C63.9466 11.9733 63.7477 12.6147 63.5347 13.2561C63.3501 13.7978 63.1655 14.3537 62.9383 14.8811C62.6543 15.5653 62.3703 16.2637 62.0153 16.9194C61.6177 17.6463 61.1491 18.3163 60.7089 19.0147C60.1409 19.8699 59.4593 20.6254 58.6073 21.1955C58.4511 21.2953 58.2665 21.3808 58.0819 21.4521C57.5281 21.6517 57.2441 21.3096 57.2157 20.7964C57.1589 20.041 57.3719 19.3425 57.5849 18.6298C57.9115 17.5038 58.3943 16.449 58.8913 15.4085C59.1611 14.8383 59.4309 14.2539 59.7433 13.6837C60.1835 12.8855 60.6521 12.1016 61.0923 11.3176C61.1207 11.2748 61.1349 11.2178 61.1775 11.118C60.6379 11.118 60.1267 11.118 59.6297 11.118C59.4309 11.118 59.2037 11.1038 59.0191 11.1608C58.3091 11.3604 57.7127 11.7737 57.3151 12.4009C56.9175 13.0423 56.5483 13.698 56.2075 14.3537C55.8525 15.0521 55.5685 15.7648 55.2418 16.4775C54.6738 17.7176 53.9354 18.8579 53.0692 19.927C52.5296 20.5969 51.8764 21.1243 51.0812 21.4664C50.6552 21.6517 50.3712 21.4379 50.3428 20.9817C50.3144 20.4401 50.3712 19.8984 50.5274 19.371C50.7404 18.6441 50.9392 17.9171 51.1806 17.1902C51.351 16.6628 51.564 16.1497 51.7628 15.6365C51.9758 15.0521 52.203 14.4677 52.416 13.8833C52.6148 13.3274 52.8136 12.7715 52.7426 12.1728C52.7 11.731 52.5864 11.2891 52.1178 11.1323C51.7486 11.0183 51.351 10.947 50.9676 10.9327C50.57 10.9327 50.1724 11.0183 49.789 11.0895C48.7524 11.2748 47.8436 11.731 46.9916 12.3296C46.5229 12.6575 46.0685 13.0423 45.6141 13.3987C45.5289 13.4699 45.4153 13.5127 45.2733 13.5982C45.3443 13.1991 45.3727 12.8855 45.4437 12.5862C45.5573 12.1158 45.3159 11.4886 44.9183 11.2321C44.5349 10.9612 44.0805 10.9755 43.6545 10.9612C43.2569 10.947 42.8451 11.0468 42.4475 11.118C41.7091 11.2321 41.0133 11.5029 40.3885 11.902C39.7069 12.3154 39.0679 12.8143 38.4146 13.2704C38.3578 13.3131 38.301 13.3274 38.2016 13.3702C38.301 12.8998 38.3862 12.5007 38.4714 12.0873C38.5851 11.5171 38.2726 11.3461 37.8892 11.2463C37.165 11.0468 36.4124 11.1323 35.674 11.1323C35.6172 11.1323 35.532 11.2178 35.532 11.2606C35.4894 11.5029 35.4894 11.7595 35.4468 12.0018C35.39 12.4009 35.3332 12.8143 35.2196 13.1991C35.0492 13.8263 34.8646 14.4535 34.6232 15.0521C34.3392 15.7506 34.0268 16.449 33.6576 17.1189C33.1038 18.1595 32.4364 19.1287 31.698 20.041C31.1584 20.6824 30.5478 21.2241 29.7383 21.4949C29.4685 21.5947 29.2271 21.5234 29.1135 21.2811C29.0425 21.1243 28.9857 20.939 28.9857 20.7679C28.9857 20.4543 28.9999 20.1265 29.0709 19.8129C29.2271 19.1145 29.3549 18.416 29.6105 17.7604C30.0933 16.506 30.633 15.2517 31.201 14.0258C31.6412 13.0851 32.1098 12.1443 32.8624 11.3746C32.905 11.3318 32.9192 11.2463 32.9618 11.1465C32.834 11.1465 32.7488 11.1323 32.6636 11.1323C32.1666 11.1323 31.6696 11.1323 31.1726 11.1465C30.6898 11.1608 30.2353 11.2891 29.8803 11.6169C29.5111 11.959 29.1561 12.3154 28.8011 12.686C28.6733 12.8143 28.6307 12.7857 28.5597 12.6575C28.5029 12.5577 28.4603 12.4579 28.4035 12.3581C27.8781 11.4601 27.0261 11.1465 26.0605 11.061C25.5635 11.0183 25.0381 11.0753 24.5411 11.1323C23.8027 11.2178 23.1495 11.5457 22.5105 11.9305C21.6158 12.4722 20.8632 13.1849 20.2384 14.0258C19.8124 14.596 19.429 15.1947 19.1024 15.8218C18.7048 16.6058 18.3498 17.4325 18.1652 18.302C18.0658 18.8151 17.938 19.3283 17.8812 19.8557C17.8244 20.4258 17.8528 20.996 17.8528 21.5661C17.8528 22.0365 17.867 22.5069 18.0942 22.9488C18.4634 23.6472 18.8042 24.0463 19.642 24.0036C19.8266 23.9893 20.0112 23.9893 20.1816 24.0036C20.92 24.0606 21.5306 23.7327 22.0987 23.3336C22.9365 22.7492 23.6323 21.9938 24.2855 21.1955C24.8961 20.4401 25.4783 19.6419 25.9611 18.7866C26.0889 18.5728 26.2451 18.359 26.3871 18.1595C26.4155 18.1737 26.4297 18.1737 26.4581 18.188C26.4297 18.3163 26.4155 18.4445 26.3871 18.5728C26.3019 18.9719 26.1599 19.371 26.1457 19.7702C26.1031 20.7679 26.1031 21.7657 26.1457 22.7635C26.1599 23.3051 26.4439 23.7898 26.9551 24.0036C27.5657 24.2601 28.2331 24.2174 28.8295 23.9465C29.9655 23.4334 30.775 22.5069 31.5702 21.5947C31.84 21.2953 32.0814 20.9675 32.337 20.6539C32.3654 20.6682 32.3938 20.6824 32.4222 20.6967C32.0956 21.7942 31.5986 22.8347 31.3856 23.9608C31.4282 23.9893 31.4424 23.9893 31.4566 23.9893C32.408 23.9893 33.3594 24.0036 34.3108 23.9893C34.3676 23.9893 34.4528 23.9038 34.4812 23.8468C34.5948 23.5474 34.6942 23.2481 34.7936 22.9345C35.035 22.1506 35.2622 21.3666 35.532 20.5969C35.8444 19.6846 36.171 18.7866 36.5118 17.9029C36.8952 16.9194 37.307 15.9359 37.946 15.0806C38.8549 13.8833 39.9057 12.8998 41.4251 12.5149C42.0783 12.3439 42.3907 12.7715 42.3481 13.2846C42.3197 13.6552 42.2203 14.0258 42.1209 14.3822C41.9221 15.0379 41.6949 15.6935 41.4677 16.335C41.2263 17.0334 40.9565 17.7176 40.7009 18.416C40.4595 19.086 40.2039 19.7416 39.9625 20.4116C39.7353 21.0245 39.5081 21.6232 39.2951 22.2361C39.1389 22.6922 38.9685 23.1483 38.8549 23.6187C38.7555 24.0036 38.7839 24.0321 39.1673 24.0178C39.9767 24.0178 40.7861 24.0036 41.6097 23.9751C41.6949 23.9751 41.8085 23.8753 41.8369 23.7898C41.9363 23.5332 41.9931 23.2624 42.0641 23.0058C42.2771 22.3074 42.4617 21.6089 42.6889 20.9247C42.9729 20.0837 43.2569 19.2428 43.5693 18.4018C43.7823 17.8174 44.0521 17.2615 44.3077 16.6913C44.7479 15.7506 45.3585 14.9238 46.0969 14.1969C46.4945 13.812 46.9205 13.4557 47.3608 13.1136C47.7868 12.7857 48.3122 12.629 48.8376 12.4864C49.3204 12.3581 49.6328 12.6717 49.5476 13.0851C49.4908 13.4129 49.434 13.7408 49.3204 14.0686C49.008 14.9523 48.6672 15.8361 48.3548 16.7198C48.1276 17.3612 47.9146 18.0169 47.7158 18.6726C47.5738 19.1145 47.4602 19.5706 47.375 20.0267C47.2614 20.5826 47.1762 21.1385 47.1194 21.7087C47.091 22.008 47.1478 22.3216 47.1904 22.6209C47.3182 23.633 47.9004 24.1033 48.8092 24.1461C49.6896 24.1889 50.4422 23.804 51.1238 23.2766C52.1888 22.4641 53.0834 21.4806 53.836 20.3688C53.9354 20.212 54.049 20.0695 54.1626 19.927C54.191 19.9412 54.2052 19.9555 54.2336 19.9555C54.2336 20.0695 54.2336 20.1693 54.2336 20.2833C54.2762 21.1528 54.1342 22.0223 54.3472 22.8775C54.4608 23.3336 54.688 23.7327 55.1283 23.9465C55.3697 24.0606 55.6679 24.0891 55.9519 24.1033C56.2359 24.1176 56.5483 24.1176 56.8039 24.0178C57.8405 23.5759 58.7209 22.8775 59.4735 22.0365C60.1267 21.2953 60.6947 20.4686 61.3053 19.6846C61.3905 19.5849 61.4757 19.4851 61.5609 19.3853C61.5751 19.3996 61.6035 19.4138 61.6177 19.4138C61.5751 19.7131 61.5183 20.0125 61.4899 20.3118C61.4331 20.8962 61.3337 21.4949 61.3337 22.0793C61.3337 22.6637 61.5041 23.2196 61.9301 23.6472C62.0863 23.804 62.2567 23.9893 62.4555 24.0178C63.6625 24.2316 64.7986 23.9465 65.821 23.2909C66.8292 22.6494 67.6528 21.8085 68.3628 20.8392C68.6042 20.4971 68.8598 20.155 69.1154 19.8129C69.1438 19.8129 69.158 19.8272 69.1864 19.8272C69.158 20.041 69.1012 20.2405 69.087 20.4543C69.0728 21.1813 68.9876 21.9225 69.1722 22.6494C69.3 23.1198 69.513 23.5332 69.9106 23.8325C70.1804 24.0463 70.507 24.0321 70.8052 24.0748C71.4726 24.1604 72.1259 24.0891 72.7223 23.7612C73.5317 23.3194 74.1991 22.6922 74.8381 22.0508C75.4061 21.4806 75.9315 20.8962 76.5421 20.2548C76.5137 20.3831 76.5137 20.4543 76.4853 20.5256C76.3007 21.0245 76.1161 21.5234 75.9315 22.008C75.6759 22.6779 75.4487 23.3479 75.1789 24.0178C74.9091 24.702 74.6109 25.3577 74.3269 26.0276C73.8867 27.0539 73.3045 27.9804 72.4667 28.7216C71.8276 29.2918 71.0892 29.5911 70.2372 29.4771C69.8112 29.42 69.4278 29.2347 69.1722 28.8641C68.8314 28.3653 68.9308 27.2677 69.3852 26.8829C69.4988 26.7831 69.4846 26.7261 69.3852 26.612C69.1438 26.3412 68.8598 26.1559 68.5332 26.0704C68.0504 25.9421 67.6102 25.9421 67.241 26.384C67.0138 26.6548 66.815 26.9114 66.7298 27.2677C66.5736 27.9234 66.6304 28.5506 67.0422 29.0922C67.6954 29.9617 68.661 30.2468 69.655 30.3608C70.294 30.4321 70.933 30.3465 71.5862 30.3038C72.2253 30.261 72.8217 30.033 73.3897 29.7479C74.3837 29.2633 75.2925 28.6788 76.0309 27.8379C76.4569 27.3532 76.8687 26.8543 77.1243 26.2699C77.5503 25.3007 77.9479 24.3029 78.3455 23.3194C78.6863 22.4499 79.0129 21.5661 79.3253 20.6967C79.7797 19.4138 80.2057 18.131 80.6743 16.8481C81.0152 15.9216 81.3986 15.0094 81.782 14.0971C82.0944 13.3559 82.4636 12.6432 82.9748 12.016C83.1452 11.8022 83.3298 11.6169 83.5144 11.3889C83.4292 11.4459 83.4008 11.4174 83.3724 11.4174ZM66.8718 11.5599C67.2268 10.6619 67.5676 9.76392 67.9368 8.86592C68.2634 8.06771 68.59 7.28374 68.9308 6.49978C69.2858 5.6873 69.6266 4.84633 70.0526 4.06236C70.4786 3.2784 70.9756 2.50869 71.4868 1.78174C71.7282 1.43964 72.0975 1.16882 72.4383 0.91225C72.7507 0.684187 73.0205 0.826726 73.2193 0.983519C73.4749 1.18307 73.4181 1.4539 73.3471 1.69621C72.7933 3.66325 71.8276 5.43074 70.6916 7.1127C69.655 8.65212 68.5048 10.1203 67.3404 11.5599C67.1558 11.8022 66.9428 12.016 66.744 12.2441C66.7156 12.2726 66.6872 12.2869 66.6588 12.3011C66.6446 12.2869 66.6304 12.2869 66.6162 12.2726C66.7014 12.0445 66.7724 11.8022 66.8718 11.5599ZM28.3751 13.2846C27.9065 14.0971 27.4237 14.9096 26.9409 15.7078C26.4013 16.5773 25.8759 17.461 25.3079 18.3163C24.6689 19.2713 23.8879 20.1122 23.0075 20.8392C22.6241 21.1528 22.1555 21.3238 21.6726 21.4094C21.3318 21.4664 20.8916 21.0815 20.8774 20.7394C20.8774 20.6111 20.8774 20.4686 20.8774 20.3403C20.92 19.6276 21.0336 18.9292 21.275 18.2307C21.7863 16.7483 22.5815 15.437 23.5613 14.2396C24.1009 13.5697 24.7115 12.9996 25.4783 12.5862C26.0747 12.2584 26.6995 12.1443 27.3669 12.2441C27.8355 12.3154 28.1905 12.6004 28.4177 13.0138C28.4319 13.0993 28.4177 13.2134 28.3751 13.2846Z" fill="black"/>
<path d="M21.8993 11.6579C21.9987 11.5439 22.0839 11.4299 22.1833 11.3159C22.1691 11.2873 22.1549 11.2731 22.1407 11.2446C20.2947 11.4726 18.4344 11.5297 16.5458 11.5297C16.5458 11.4299 16.5458 11.3586 16.56 11.2873C16.6878 10.9025 16.8014 10.5176 16.9434 10.147C17.3126 9.16351 17.6676 8.18 18.0794 7.22498C18.5054 6.21296 18.9741 5.21518 19.4711 4.23167C19.9397 3.27665 20.5077 2.37866 21.2887 1.65171C21.7857 1.18133 22.3679 0.853492 23.0779 0.910507C23.9441 0.967523 24.5121 1.66596 24.1287 2.54971C23.9299 3.00583 23.6743 3.43345 23.4329 3.86106C23.3193 4.08913 23.2341 4.31719 23.4045 4.54525C23.5607 4.75906 23.7595 4.9016 24.0151 4.93011C25.0801 5.07265 25.8185 4.43122 26.0741 3.46195C26.1877 3.02008 26.2019 2.53545 26.1735 2.07933C26.1451 1.50917 25.8611 1.03879 25.3783 0.682445C24.7961 0.254828 24.1003 0.155051 23.4187 0.0980352C22.5809 0.0267657 21.7573 0.112289 20.9479 0.397367C20.2379 0.653937 19.5705 0.981777 18.9883 1.48066C18.4202 1.97955 17.9516 2.54971 17.5114 3.16262C16.8582 4.04637 16.3612 5.01563 15.921 6.0134C15.5802 6.79737 15.2962 7.62409 14.9838 8.43657C14.6856 9.23478 14.4016 10.0473 14.075 10.8312C13.8194 11.4584 14.004 11.4441 13.2088 11.3729C12.3426 11.3016 11.4764 11.2731 10.6102 11.2161C10.3972 11.2018 10.2551 11.3016 10.1699 11.4726C9.95695 11.9573 9.75814 12.4419 9.55934 12.9265C9.24694 13.6677 8.93453 14.4089 8.59373 15.1216C8.23872 15.8628 7.82692 16.5898 7.48612 17.3453C7.37251 17.5876 7.25891 17.8869 7.38671 18.1862C7.41511 18.2718 7.47192 18.343 7.51452 18.4143C7.58552 18.3573 7.68492 18.3145 7.72752 18.2432C8.13932 17.5876 8.53693 16.9176 8.92033 16.2477C9.37474 15.4637 9.78654 14.6655 10.2551 13.8958C10.4824 13.511 10.7806 13.1831 11.235 13.0263C11.8172 12.841 12.3994 12.898 12.9958 12.9265C13.1378 12.9265 13.1946 13.0121 13.1378 13.1546C12.8964 13.7818 12.6834 14.4089 12.4278 15.0361C12.0728 15.9199 11.7178 16.7894 11.3628 17.6731C11.022 18.5283 10.6954 19.3836 10.3261 20.2245C9.84334 21.3363 9.36054 22.4339 8.83513 23.5314C8.29553 24.6575 7.75592 25.7978 7.15951 26.8954C6.74771 27.6651 6.2933 28.4205 5.78209 29.1475C5.17149 30.017 4.44728 30.7439 3.36807 31.029C2.94206 31.143 2.40245 31.029 2.24625 30.7297C2.09005 30.4303 2.00485 30.0882 2.13265 29.7461C2.30305 29.3328 2.48766 28.9337 2.62966 28.5061C2.68646 28.335 2.68646 28.1069 2.61546 27.9502C2.40245 27.4798 1.57884 27.323 1.19544 27.6651C0.982438 27.8504 0.826236 28.1069 0.670034 28.335C0.584833 28.4633 0.528032 28.6058 0.457031 28.7484C0.457031 29.2615 0.457031 29.7604 0.457031 30.2735C0.499632 30.3448 0.528032 30.4161 0.570633 30.4731C0.741035 30.8294 0.954037 31.1573 1.28064 31.3711C2.31725 32.0695 3.46747 32.1265 4.61768 31.8415C5.66849 31.5849 6.5489 30.9862 7.32991 30.2593C8.23872 29.4183 9.00553 28.4775 9.67294 27.4513C10.3688 26.4107 10.9794 25.3274 11.5474 24.2014C11.9876 23.3319 12.3852 22.4624 12.7686 21.5787C13.1094 20.7947 13.4218 19.9965 13.7342 19.1983C13.9614 18.6138 14.1602 18.0009 14.3732 17.4023C14.6288 16.6896 14.8986 15.9626 15.1542 15.2499C15.4098 14.523 15.637 13.7818 15.8926 13.0548C15.9352 12.9408 15.992 12.841 16.1624 12.8268C17.5398 12.7698 18.9173 12.7412 20.2805 12.4562C20.9479 12.3279 21.4733 12.0998 21.8993 11.6579Z" fill="black"/>
<path d="M61.602 8.22289C61.673 8.10886 61.7724 8.02333 61.8434 7.9093C62.1842 7.46743 62.5534 7.09683 63.093 6.94004C63.2918 6.88302 63.4906 6.85451 63.6752 6.76899C64.2858 6.45541 64.4704 5.99928 64.1012 5.40062C63.8314 4.973 63.4338 4.83046 62.951 4.85897C62.454 4.85897 62.3546 4.88748 61.9712 5.17255C61.5168 5.51465 61.1476 5.92801 60.892 6.44115C60.5938 7.03982 60.466 7.65273 60.9772 8.22289C61.247 8.49371 61.4032 8.50797 61.602 8.22289Z" fill="black"/>
</svg>
