<svg width="170" height="185" viewBox="0 0 170 185" fill="none" xmlns="http://www.w3.org/2000/svg">
<path d="M40.674 0.53125L0.269531 17.8365L43.1878 118.048L59.818 110.925L48.6717 33.4253L48.1549 29.8282L79.8773 25.2657L74.8226 13.4637C68.087 14.9871 63.1656 14.8563 55.6834 21.9678L53.2637 24.2664L50.768 22.0522C43.4527 15.5629 42.3585 7.28821 40.674 0.53125ZM48.3099 0.7299C49.6193 5.90007 50.5448 10.5312 53.4688 14.3286C58.6442 10.2054 63.3396 8.58428 67.5807 7.57246C61.7322 4.47399 55.6083 2.63969 48.3099 0.7299ZM99.8889 29.7305L56.3828 35.9872L71.9018 143.893L86.8321 141.745L96.1945 63.4172L96.6257 59.8092L131.384 63.9639L129.527 51.0596C122.626 50.7887 117.907 49.3881 108.839 54.3204L105.907 55.9153L104.069 53.1297C98.6833 44.9685 99.7674 36.6934 99.8889 29.7305ZM107.213 31.8975C107.139 37.2312 106.834 41.9443 108.676 46.3691C114.743 43.7257 119.698 43.3752 124.057 43.4956C119.209 38.9888 113.769 35.6315 107.213 31.8975ZM102.979 67.8884L90.0416 176.134L159.8 184.471L169.731 101.379C163.135 99.331 158.939 96.7554 148.903 99.1727L145.659 99.9544L144.605 96.7889C141.514 87.5117 144.703 79.799 146.623 73.105L102.979 67.8884ZM153.137 77.0938C151.686 82.2268 150.171 86.7001 150.805 91.4508C157.349 90.4676 162.226 91.4116 166.405 92.656C162.889 87.0482 158.503 82.3968 153.137 77.0938Z" fill="black"/>
</svg>
